<svg xmlns="http://www.w3.org/2000/svg" viewBox="0 0 300 400" width="300" height="400" role="img" aria-label="Concept art — Kotlin Ascended, a serene haloed monk over a lotus">
<defs>
  <radialGradient id="kbg" cx="0.5" cy="0.32" r="0.95">
    <stop offset="0" stop-color="#3a2668"/><stop offset="0.5" stop-color="#1c1440"/><stop offset="1" stop-color="#0a0820"/>
  </radialGradient>
  <linearGradient id="krobe" x1="0" y1="0" x2="0" y2="1">
    <stop offset="0" stop-color="#5a3fa0"/><stop offset="0.5" stop-color="#2e2160"/><stop offset="1" stop-color="#130f30"/>
  </linearGradient>
  <radialGradient id="khalo" cx="0.5" cy="0.5" r="0.5">
    <stop offset="0" stop-color="#c9a9ff" stop-opacity="0"/><stop offset="0.72" stop-color="#c9a9ff" stop-opacity="0"/><stop offset="0.86" stop-color="#d9bcff" stop-opacity="0.9"/><stop offset="1" stop-color="#d9bcff" stop-opacity="0"/>
  </radialGradient>
  <radialGradient id="kaura" cx="0.5" cy="0.4" r="0.6"><stop offset="0" stop-color="#a17bff" stop-opacity="0.45"/><stop offset="1" stop-color="#a17bff" stop-opacity="0"/></radialGradient>
  <linearGradient id="klotus" x1="0" y1="0" x2="0" y2="1"><stop offset="0" stop-color="#e7d4ff"/><stop offset="0.5" stop-color="#9a6ff0"/><stop offset="1" stop-color="#4a2f8f"/></linearGradient>
  <linearGradient id="kframe" x1="0" y1="0" x2="0" y2="1"><stop offset="0" stop-color="#ffd6f5"/><stop offset="0.5" stop-color="#ff5edb"/><stop offset="1" stop-color="#992f82"/></linearGradient>
  <filter id="ksoft" x="-60%" y="-60%" width="220%" height="220%"><feGaussianBlur stdDeviation="5"/></filter>
</defs>
<rect x="2" y="2" width="296" height="396" rx="16" fill="url(#kbg)"/>
<circle cx="150" cy="150" r="110" fill="url(#kaura)"/>
<g fill="#d9bcff"><circle cx="58" cy="80" r="1.3" opacity="0.8"/><circle cx="244" cy="96" r="1.4" opacity="0.8"/><circle cx="70" cy="170" r="1" opacity="0.5"/><circle cx="232" cy="186" r="1.1" opacity="0.6"/><circle cx="150" cy="40" r="1.4" opacity="0.7"/><circle cx="40" cy="250" r="1.2" opacity="0.6"/><circle cx="262" cy="256" r="1.2" opacity="0.6"/></g>
<circle cx="150" cy="132" r="66" fill="url(#khalo)" filter="url(#ksoft)"/>
<circle cx="150" cy="132" r="58" fill="none" stroke="#e7d4ff" stroke-width="1.4" opacity="0.55"/>
<path d="M150 74 L128 104 L112 210 L96 400 L204 400 L188 210 L172 104 Z" fill="url(#krobe)"/>
<path d="M150 74 L172 104 L188 210 L180 320 L156 280 L156 130 Z" fill="#130f30" opacity="0.4"/>
<path d="M150 78 L129 106 M150 78 L171 106" stroke="#c9a9ff" stroke-width="2.6" stroke-linecap="round" opacity="0.8"/>
<path d="M126 108 L174 108 L166 168 L134 168 Z" fill="#0a0820"/>
<path d="M134 136 q8 7 16 0 M150 136 q8 7 16 0" fill="none" stroke="#e7d4ff" stroke-width="2.4" stroke-linecap="round"/>
<path d="M150 92 l6 7 l-6 7 l-6 -7 Z" fill="#ffd873" filter="url(#ksoft)"/>
<path d="M150 94 l4.5 5 l-4.5 5 l-4.5 -5 Z" fill="#fff3c4"/>
<g transform="translate(150 320)">
  <g transform="rotate(0)"><path d="M0 -46 C16 -20 14 12 0 30 C-14 12 -16 -20 0 -46 Z" fill="url(#klotus)" opacity="0.96"/></g>
  <g transform="rotate(-34)"><path d="M0 -40 C14 -16 12 12 0 26 C-12 12 -14 -16 0 -40 Z" fill="url(#klotus)" opacity="0.88"/></g>
  <g transform="rotate(34)"><path d="M0 -40 C14 -16 12 12 0 26 C-12 12 -14 -16 0 -40 Z" fill="url(#klotus)" opacity="0.88"/></g>
  <g transform="rotate(-64)"><path d="M0 -34 C13 -12 11 12 0 22 C-11 12 -13 -12 0 -34 Z" fill="url(#klotus)" opacity="0.72"/></g>
  <g transform="rotate(64)"><path d="M0 -34 C13 -12 11 12 0 22 C-11 12 -13 -12 0 -34 Z" fill="url(#klotus)" opacity="0.72"/></g>
  <circle cx="0" cy="4" r="7" fill="#fff3c4" filter="url(#ksoft)"/><circle cx="0" cy="4" r="4" fill="#ffffff"/>
</g>
<g fill="#e7d4ff"><circle cx="112" cy="250" r="1.5" opacity="0.7"/><circle cx="192" cy="236" r="1.4" opacity="0.7"/><circle cx="126" cy="300" r="1.2" opacity="0.6"/><circle cx="180" cy="286" r="1.2" opacity="0.6"/></g>
<rect x="5" y="5" width="290" height="390" rx="14" fill="none" stroke="url(#kframe)" stroke-width="2"/>
<g stroke="#ff5edb" stroke-width="2" fill="none"><path d="M14 14 h20 M14 14 v20"/><path d="M286 14 h-20 M286 14 v20"/><path d="M14 386 h20 M14 386 v-20"/><path d="M286 386 h-20 M286 386 v-20"/></g>
<text x="150" y="366" text-anchor="middle" font-family="Georgia, 'Times New Roman', serif" font-size="20" font-style="italic" fill="#ece7d8">Kotlin · Ascended</text>
<text x="150" y="384" text-anchor="middle" font-family="ui-monospace, Consolas, monospace" font-size="9" letter-spacing="4" fill="#c9a9ff">MYTHIC CONCEPT</text>
</svg>
