<svg xmlns="http://www.w3.org/2000/svg" viewBox="0 0 300 400" width="300" height="400" role="img" aria-label="Concept art — Rust Undying, an armored guardian behind a rune shield">
<defs>
  <radialGradient id="rbg" cx="0.5" cy="0.34" r="0.9">
    <stop offset="0" stop-color="#4a2c1a"/><stop offset="0.55" stop-color="#22140c"/><stop offset="1" stop-color="#0e0805"/>
  </radialGradient>
  <linearGradient id="riron" x1="0" y1="0" x2="0" y2="1">
    <stop offset="0" stop-color="#5c6570"/><stop offset="0.5" stop-color="#333b45"/><stop offset="1" stop-color="#191d24"/>
  </linearGradient>
  <linearGradient id="rshield" x1="0" y1="0" x2="0.4" y2="1">
    <stop offset="0" stop-color="#f0c39a"/><stop offset="0.45" stop-color="#c98a5c"/><stop offset="1" stop-color="#6e4327"/>
  </linearGradient>
  <radialGradient id="rglow" cx="0.5" cy="0.5" r="0.5">
    <stop offset="0" stop-color="#ffb066" stop-opacity="0.5"/><stop offset="1" stop-color="#ffb066" stop-opacity="0"/>
  </radialGradient>
  <linearGradient id="rframe" x1="0" y1="0" x2="0" y2="1"><stop offset="0" stop-color="#ffd873"/><stop offset="0.5" stop-color="#c69a3f"/><stop offset="1" stop-color="#7c5c22"/></linearGradient>
  <filter id="rsoft" x="-60%" y="-60%" width="220%" height="220%"><feGaussianBlur stdDeviation="4.5"/></filter>
</defs>
<rect x="2" y="2" width="296" height="396" rx="16" fill="url(#rbg)"/>
<circle cx="150" cy="150" r="100" fill="url(#rglow)"/>
<g fill="#ffb066"><circle cx="60" cy="300" r="1.6" opacity="0.8"/><circle cx="238" cy="270" r="1.4" opacity="0.7"/><circle cx="80" cy="220" r="1.1" opacity="0.6"/><circle cx="220" cy="200" r="1.2" opacity="0.6"/><circle cx="120" cy="330" r="1.3" opacity="0.7"/><circle cx="186" cy="350" r="1.5" opacity="0.6"/><circle cx="150" cy="250" r="1" opacity="0.5"/></g>
<path d="M150 400 L108 250 L192 250 Z" fill="#241a12"/>
<path d="M96 176 L120 156 L120 210 L92 210 Z" fill="url(#riron)"/>
<path d="M204 176 L180 156 L180 210 L208 210 Z" fill="url(#riron)"/>
<path d="M96 176 L120 156" stroke="#e0a878" stroke-width="2" opacity="0.7"/>
<path d="M204 176 L180 156" stroke="#e0a878" stroke-width="2" opacity="0.7"/>
<path d="M120 96 Q150 74 180 96 L184 150 L116 150 Z" fill="url(#riron)"/>
<path d="M120 96 Q150 74 180 96" fill="none" stroke="#ffd0a8" stroke-width="2.5" opacity="0.8"/>
<path d="M124 100 L176 100 L178 116 L122 116 Z" fill="#0e0805"/>
<rect x="123" y="122" width="54" height="7" rx="2" fill="#ffb85c" filter="url(#rsoft)"/>
<rect x="126" y="123.5" width="48" height="4" rx="2" fill="#ffe0a8"/>
<path d="M150 176 L214 200 V286 Q214 344 150 374 Q86 344 86 286 V200 Z" fill="url(#rshield)" stroke="#5a3620" stroke-width="3" stroke-linejoin="round"/>
<path d="M150 186 L204 206 V284 Q204 334 150 360 Q96 334 96 284 V206 Z" fill="none" stroke="#f6d8ba" stroke-width="1.2" opacity="0.5"/>
<path d="M150 214 V320 M116 262 H184" stroke="#ffcf8a" stroke-width="5" stroke-linecap="round" filter="url(#rsoft)"/>
<path d="M150 214 V320 M116 262 H184" stroke="#fff0d6" stroke-width="2.4" stroke-linecap="round"/>
<g fill="#7c4e2c"><circle cx="150" cy="196" r="2.4"/><circle cx="104" cy="212" r="2.4"/><circle cx="196" cy="212" r="2.4"/><circle cx="150" cy="352" r="2.4"/></g>
<rect x="5" y="5" width="290" height="390" rx="14" fill="none" stroke="url(#rframe)" stroke-width="2"/>
<g stroke="#ffd873" stroke-width="2" fill="none"><path d="M14 14 h20 M14 14 v20"/><path d="M286 14 h-20 M286 14 v20"/><path d="M14 386 h20 M14 386 v-20"/><path d="M286 386 h-20 M286 386 v-20"/></g>
<text x="150" y="366" text-anchor="middle" font-family="Georgia, 'Times New Roman', serif" font-size="20" font-style="italic" fill="#ece7d8">Rust · Undying</text>
<text x="150" y="384" text-anchor="middle" font-family="ui-monospace, Consolas, monospace" font-size="9" letter-spacing="4" fill="#ffb87a">MYTHIC CONCEPT</text>
</svg>
