<svg xmlns="http://www.w3.org/2000/svg" width="500" height="253" viewBox="0 0 500 253" role="img" aria-labelledby="card-title-a11y card-desc-a11y">
<title id="card-title-a11y">Shell Dev — Level 61 Shell Root Sovereign (Mythic)</title>
<desc id="card-desc-a11y">Mythic Shell Root Sovereign, subclass Go Worldwalker. Level 61, 372949 XP (7% to next). Fame +27400, Combo x200. Badges: Worldbuilder, Supernova, Armada, Purifier, Prolific, Inferno, Gatekeeper, Luminary, Veteran.</desc>
<style>
text { font-family: 'Segoe UI', Ubuntu, 'Helvetica Neue', sans-serif; }
.title { font-size: 18px; font-weight: 600; fill: #58a6ff; }
.title-icon { fill: #58a6ff; }
.icon { fill: #58a6ff; }


.gl-name { font-size: 21px; font-weight: 700; fill: #58a6ff; }
.gl-lvl { font-size: 15px; font-weight: 800; letter-spacing: 1.5px; fill: #58a6ff; }
.gl-class { font-size: 17px; font-weight: 700; fill: #89e051; }
.gl-sub { font-size: 13px; font-weight: 600; fill: #c9d1d9; opacity: 0.75; }
.gl-meta { font-size: 11px; fill: #c9d1d9; opacity: 0.7; }
.gl-pct { font-size: 16px; font-weight: 800; fill: #58a6ff; }
.gl-chip-label { font-size: 12px; font-weight: 600; fill: #c9d1d9; }
.gl-chip-value { font-size: 12px; font-weight: 800; fill: #89e051; }
.gl-hint { font-size: 10px; fill: #c9d1d9; opacity: 0.62; }
.gl-badge-label { font-size: 10.5px; font-weight: 600; }
.gl-rarity { font-size: 9px; font-weight: 700; letter-spacing: 2.5px; fill: #ff5edb; }

</style>
<defs><linearGradient id="card-bg" x1="0" y1="0" x2="1" y2="1" gradientTransform="rotate(90, 0.5, 0.5)"><stop offset="0.0%" stop-color="#0d1117"/><stop offset="100.0%" stop-color="#101d33"/></linearGradient><filter id="card-glow" x="-50%" y="-50%" width="200%" height="200%">
    <feGaussianBlur in="SourceGraphic" stdDeviation="3" result="blur"/>
    <feFlood flood-color="#58a6ff" flood-opacity="0.55" result="tint"/>
    <feComposite in="tint" in2="blur" operator="in" result="softGlow"/>
    <feMerge><feMergeNode in="softGlow"/><feMergeNode in="SourceGraphic"/></feMerge>
  </filter><filter id="gl-glow" x="-60%" y="-60%" width="220%" height="220%">
    <feGaussianBlur in="SourceGraphic" stdDeviation="2.4" result="b"/>
    <feFlood flood-color="#89e051" flood-opacity="0.55" result="t"/>
    <feComposite in="t" in2="b" operator="in" result="g"/>
    <feMerge><feMergeNode in="g"/><feMergeNode in="SourceGraphic"/></feMerge>
  </filter>
  <filter id="gl-rarity" x="-20%" y="-20%" width="140%" height="140%">
    <feGaussianBlur stdDeviation="2.4"/>
  </filter></defs>
<rect x="0.5" y="0.5" width="499" height="252" rx="14" fill="url(#card-bg)" stroke="#ff5edb" stroke-width="1.4" stroke-opacity="0.6"/>
<rect x="3.5" y="3.5" width="493" height="246" rx="11" fill="none" stroke="#30363d" stroke-opacity="0.4"/>

<rect x="2" y="2" width="496" height="249" rx="13" fill="none" stroke="#ff5edb" stroke-width="3.5" stroke-opacity="0.4" filter="url(#gl-rarity)"/>
<g class="fade">
    <g class="">
      <g class="flourish"><g transform="translate(84,0)"><g transform="translate(0,92)" fill="#89e051" opacity="0.82">
    <path d="M27 16 L41 20 L36 39 L32.5 33 L29 40 Z"/>
  </g></g><g transform="translate(84,0) scale(-1,1)"><g transform="translate(0,92)" fill="#89e051" opacity="0.82">
    <path d="M27 16 L41 20 L36 39 L32.5 33 L29 40 Z"/>
  </g></g></g>
      <circle cx="84" cy="92" r="44" fill="#89e051" fill-opacity="0.08" stroke="#89e051" stroke-opacity="0.35" stroke-width="1.5"/>
      <g class="">
    <circle cx="84" cy="92" r="38" fill="none" stroke="#89e051" stroke-opacity="0.6" stroke-width="1.4" stroke-dasharray="1.5 7" stroke-linecap="round"/>
    <circle cx="84" cy="92" r="34" fill="none" stroke="#89e051" stroke-opacity="0.25" stroke-width="0.8"/>
  </g>
      
      <g class="" filter="url(#gl-glow)"><svg class="" x="51" y="59" width="66" height="66" viewBox="0 0 48 48" aria-hidden="true"><defs><radialGradient id="shHalo" cx="0.5" cy="0.5" r="0.5"><stop offset="0" stop-color="#89e051" stop-opacity="0.42"/><stop offset="1" stop-color="#89e051" stop-opacity="0"/></radialGradient><linearGradient id="shFrame" x1="0" y1="0" x2="1" y2="1"><stop offset="0" stop-color="#c5e1b3"/><stop offset="0.5" stop-color="#6eb341"/><stop offset="1" stop-color="#375a21"/></linearGradient></defs>
    <circle cx="24" cy="24" r="21" fill="url(#shHalo)"/>
    <rect x="8" y="12" width="32" height="24" rx="2.5" fill="#0b1710" stroke="url(#shFrame)" stroke-width="1.6"/>
    <path d="M8 18 H40" stroke="url(#shFrame)" stroke-width="1"/>
    <g fill="#e6bf55"><circle cx="12" cy="15" r="1"/><circle cx="16" cy="15" r="1"/><circle cx="20" cy="15" r="1"/></g>
    <path d="M13 24 L19 28 L13 32" fill="none" stroke="#89e051" stroke-width="2" stroke-linecap="round" stroke-linejoin="round"/>
    <path d="M22 32 H33" stroke="#89e051" stroke-width="2" stroke-linecap="round"/></svg></g>
      <g transform="translate(69, 36.5) scale(1.5)"><path d="M2 9 L3 2 L7 6 L11 1 L15 6 L19 2 L20 9 Z" fill="#89e051" stroke="#89e051" stroke-width="1" stroke-linejoin="round"/></g>
    </g>
    <g><g class="" transform="translate(45.5, 145.5) scale(0.5416666666666666)" fill="#ff5edb" stroke="#ff5edb" stroke-width="2.4" stroke-linejoin="round" stroke-linecap="round" opacity="1">
    <path d="M12 3 L14.5 8.6 L20.6 9.3 L16 13.5 L17.4 19.6 L12 16.5 L6.6 19.6 L8 13.5 L3.4 9.3 L9.5 8.6 Z"/>
  </g><g class="" transform="translate(61.5, 145.5) scale(0.5416666666666666)" fill="#ff5edb" stroke="#ff5edb" stroke-width="2.4" stroke-linejoin="round" stroke-linecap="round" opacity="1">
    <path d="M12 3 L14.5 8.6 L20.6 9.3 L16 13.5 L17.4 19.6 L12 16.5 L6.6 19.6 L8 13.5 L3.4 9.3 L9.5 8.6 Z"/>
  </g><g class="" transform="translate(77.5, 145.5) scale(0.5416666666666666)" fill="#ff5edb" stroke="#ff5edb" stroke-width="2.4" stroke-linejoin="round" stroke-linecap="round" opacity="1">
    <path d="M12 3 L14.5 8.6 L20.6 9.3 L16 13.5 L17.4 19.6 L12 16.5 L6.6 19.6 L8 13.5 L3.4 9.3 L9.5 8.6 Z"/>
  </g><g class="" transform="translate(93.5, 145.5) scale(0.5416666666666666)" fill="#ff5edb" stroke="#ff5edb" stroke-width="2.4" stroke-linejoin="round" stroke-linecap="round" opacity="1">
    <path d="M12 3 L14.5 8.6 L20.6 9.3 L16 13.5 L17.4 19.6 L12 16.5 L6.6 19.6 L8 13.5 L3.4 9.3 L9.5 8.6 Z"/>
  </g><g class="" transform="translate(109.5, 145.5) scale(0.5416666666666666)" fill="#ff5edb" stroke="#ff5edb" stroke-width="2.4" stroke-linejoin="round" stroke-linecap="round" opacity="1">
    <path d="M12 3 L14.5 8.6 L20.6 9.3 L16 13.5 L17.4 19.6 L12 16.5 L6.6 19.6 L8 13.5 L3.4 9.3 L9.5 8.6 Z"/>
  </g></g>
    <text class="gl-rarity" x="84" y="172" text-anchor="middle">MYTHIC</text>
  </g>
<g class="fade" style="animation-delay:.15s">
    <text class="gl-name" x="150" y="41">Shell Dev</text>
    <text class="gl-lvl glow-pulse" x="474" y="39" text-anchor="end" filter="url(#gl-glow)">LV 61</text>
    <line x1="150" y1="51" x2="474" y2="51" stroke="#89e051" stroke-opacity="0.22" stroke-width="1"/>

    <circle cx="154" cy="70" r="4" fill="#89e051"/>
    <text class="gl-class" x="166" y="75">Shell Root Sovereign</text>
    <text class="gl-sub" x="150" y="94">Subclass · Go Worldwalker</text>

    <text class="gl-meta" x="150" y="118">372.9k / 384.4k XP</text>
    <text class="gl-pct " x="474" y="119" text-anchor="end">7%</text>
    <rect x="150" y="126" width="324" height="10" rx="5" fill="#c9d1d9" fill-opacity="0.14"/>
    <rect class="xp-fill " x="150" y="126" width="22.363902439024393" height="10" rx="5" fill="#58a6ff" filter="url(#gl-glow)"/>
    <text class="gl-hint" x="150" y="151">11.5k XP to Lv 62</text>

    <g transform="translate(150, 176)">
      <svg class="icon" x="0" y="-11" width="14" height="14" viewBox="0 0 16 16" aria-hidden="true"><path fill-rule="evenodd" d="M8 .25a.75.75 0 0 1 .673.418l1.882 3.815 4.21.612a.75.75 0 0 1 .416 1.279l-3.046 2.97.719 4.192a.75.75 0 0 1-1.088.791L8 12.347l-3.766 1.98a.75.75 0 0 1-1.088-.79l.72-4.194L.818 6.374a.75.75 0 0 1 .416-1.28l4.21-.611L7.327.668A.75.75 0 0 1 8 .25zm0 2.445L6.615 5.5a.75.75 0 0 1-.564.41l-3.097.45 2.24 2.184a.75.75 0 0 1 .216.664l-.528 3.084 2.769-1.456a.75.75 0 0 1 .698 0l2.77 1.456-.53-3.084a.75.75 0 0 1 .216-.664l2.24-2.183-3.096-.45a.75.75 0 0 1-.564-.41L8 2.694v.001z"/></svg>
      <text class="gl-chip-label" x="22" y="0">Fame</text>
      <text class="gl-chip-value" x="64" y="0">+27.4k</text>
    </g>
    <g transform="translate(284, 176)">
      <svg class="icon" x="0" y="-11" width="14" height="14" viewBox="0 0 16 16" aria-hidden="true"><path fill-rule="evenodd" d="M8 1c1.7 2.3 4.2 4 4.2 7.1a4.2 4.2 0 0 1-8.4 0c0-1.1.4-2 1.1-2.8-.1 1 .5 1.8 1.4 1.9-.1-1.9.6-3.7 1.8-5.1.1 1 .6 1.6 1.4 1.9.1-1.4-.5-2.7-1.5-3.9z"/></svg>
      <text class="gl-chip-label" x="22" y="0">Combo</text>
      <text class="gl-chip-value" x="80" y="0">x200</text>
    </g>
  </g>
<g class="fade" style="animation-delay:.2s"><line x1="26" y1="186" x2="474" y2="186" stroke="#c9d1d9" stroke-opacity="0.1" stroke-width="1"/><g>
    <title>Worldbuilder (rare) — 50+ repositories created</title>
    <rect x="26" y="194" width="118.0032" height="18" rx="9" fill="#2dd4bf" fill-opacity="0.26" stroke="#2dd4bf" stroke-opacity="1" stroke-width="1.6"/>
    <rect x="27" y="195" width="116.0032" height="8" rx="8" fill="#ffffff" fill-opacity="0.13"/>
    <g transform="translate(30.3, 197.3) scale(0.4749999999999999)">
    <rect x="4" y="4" width="16" height="16" rx="2.4" fill="none" stroke="#2dd4bf" stroke-width="1.7"/>
    <path d="M8 4v16 M4 9.5h4" fill="none" stroke="#2dd4bf" stroke-width="1.5" opacity="0.85"/></g>
    <text class="gl-badge-label" x="47" y="206.6" fill="#c9d1d9" font-weight="800">Worldbuilder</text>
    <g class="" transform="translate(127.00319999999999, 198.5) scale(0.375)" fill="#2dd4bf" stroke="#2dd4bf" stroke-width="2.4" stroke-linejoin="round" stroke-linecap="round" opacity="1">
    <path d="M12 3 L14.5 8.6 L20.6 9.3 L16 13.5 L17.4 19.6 L12 16.5 L6.6 19.6 L8 13.5 L3.4 9.3 L9.5 8.6 Z"/>
  </g>
  </g><g>
    <title>Supernova (rare) — 10,000+ stars across their repos</title>
    <rect x="150.0032" y="194" width="99.0024" height="18" rx="9" fill="#ffe066" fill-opacity="0.26" stroke="#ffe066" stroke-opacity="1" stroke-width="1.6"/>
    <rect x="151.0032" y="195" width="97.0024" height="8" rx="8" fill="#ffffff" fill-opacity="0.13"/>
    <g transform="translate(154.3032, 197.3) scale(0.4749999999999999)"><path d="M12 2.6 14.9 8.5 21.4 9.45 16.7 14.05 17.8 20.55 12 17.5 6.2 20.55 7.3 14.05 2.6 9.45 9.1 8.5Z" fill="#ffe066"/></g>
    <text class="gl-badge-label" x="171.0032" y="206.6" fill="#c9d1d9" font-weight="800">Supernova</text>
    <g class="" transform="translate(232.0056, 198.5) scale(0.375)" fill="#ffe066" stroke="#ffe066" stroke-width="2.4" stroke-linejoin="round" stroke-linecap="round" opacity="1">
    <path d="M12 3 L14.5 8.6 L20.6 9.3 L16 13.5 L17.4 19.6 L12 16.5 L6.6 19.6 L8 13.5 L3.4 9.3 L9.5 8.6 Z"/>
  </g>
  </g><g>
    <title>Armada (rare) — 500+ merged pull requests</title>
    <rect x="255.0056" y="194" width="80.0016" height="18" rx="9" fill="#fb7185" fill-opacity="0.26" stroke="#fb7185" stroke-opacity="1" stroke-width="1.6"/>
    <rect x="256.00559999999996" y="195" width="78.0016" height="8" rx="8" fill="#ffffff" fill-opacity="0.13"/>
    <g transform="translate(259.30559999999997, 197.3) scale(0.4749999999999999)">
    <circle cx="12" cy="4.4" r="2.2" fill="none" stroke="#fb7185" stroke-width="1.7"/>
    <path d="M12 6.6V21M7.6 10h8.8" fill="none" stroke="#fb7185" stroke-width="1.7" stroke-linejoin="round" stroke-linecap="round"/>
    <path d="M4 13.6a8 8 0 0 0 16 0" fill="none" stroke="#fb7185" stroke-width="1.7" stroke-linejoin="round" stroke-linecap="round"/></g>
    <text class="gl-badge-label" x="276.00559999999996" y="206.6" fill="#c9d1d9" font-weight="800">Armada</text>
    <g class="" transform="translate(318.0072, 198.5) scale(0.375)" fill="#fb7185" stroke="#fb7185" stroke-width="2.4" stroke-linejoin="round" stroke-linecap="round" opacity="1">
    <path d="M12 3 L14.5 8.6 L20.6 9.3 L16 13.5 L17.4 19.6 L12 16.5 L6.6 19.6 L8 13.5 L3.4 9.3 L9.5 8.6 Z"/>
  </g>
  </g><g>
    <title>Purifier (rare) — 500+ issues closed</title>
    <rect x="341.0072" y="194" width="92.6688" height="18" rx="9" fill="#d4f88f" fill-opacity="0.26" stroke="#d4f88f" stroke-opacity="1" stroke-width="1.6"/>
    <rect x="342.0072" y="195" width="90.6688" height="8" rx="8" fill="#ffffff" fill-opacity="0.13"/>
    <g transform="translate(345.3072, 197.3) scale(0.4749999999999999)">
    <rect x="7.4" y="7.6" width="9.2" height="12" rx="4.6" fill="none" stroke="#d4f88f" stroke-width="1.7"/>
    <path d="M9.6 7.6a2.4 2.4 0 0 1 4.8 0" fill="none" stroke="#d4f88f" stroke-width="1.6" stroke-linejoin="round" stroke-linecap="round"/>
    <path d="M7.4 11.6H4M16.6 11.6H20M7.4 16H4.6M16.6 16H19.4M9.8 4.6 8.4 2.6M14.2 4.6 15.6 2.6" fill="none" stroke="#d4f88f" stroke-width="1.5" stroke-linejoin="round" stroke-linecap="round"/></g>
    <text class="gl-badge-label" x="362.0072" y="206.6" fill="#c9d1d9" font-weight="800">Purifier</text>
    <g class="" transform="translate(416.67600000000004, 198.5) scale(0.375)" fill="#d4f88f" stroke="#d4f88f" stroke-width="2.4" stroke-linejoin="round" stroke-linecap="round" opacity="1">
    <path d="M12 3 L14.5 8.6 L20.6 9.3 L16 13.5 L17.4 19.6 L12 16.5 L6.6 19.6 L8 13.5 L3.4 9.3 L9.5 8.6 Z"/>
  </g>
  </g><g>
    <title>Prolific (rare) — 2,000+ commits in the last 12 months alone</title>
    <rect x="26" y="217" width="92.6688" height="18" rx="9" fill="#fb923c" fill-opacity="0.26" stroke="#fb923c" stroke-opacity="1" stroke-width="1.6"/>
    <rect x="27" y="218" width="90.6688" height="8" rx="8" fill="#ffffff" fill-opacity="0.13"/>
    <g transform="translate(30.3, 220.3) scale(0.4749999999999999)"><path d="M13.6 2 4.4 13.8h6L10 22l9.6-11.9h-6.5Z" fill="#fb923c"/></g>
    <text class="gl-badge-label" x="47" y="229.6" fill="#c9d1d9" font-weight="800">Prolific</text>
    <g class="" transform="translate(101.6688, 221.5) scale(0.375)" fill="#fb923c" stroke="#fb923c" stroke-width="2.4" stroke-linejoin="round" stroke-linecap="round" opacity="1">
    <path d="M12 3 L14.5 8.6 L20.6 9.3 L16 13.5 L17.4 19.6 L12 16.5 L6.6 19.6 L8 13.5 L3.4 9.3 L9.5 8.6 Z"/>
  </g>
  </g><g>
    <title>Inferno — 100-day contribution streak</title>
    <rect x="124.6688" y="217" width="71.63" height="18" rx="9" fill="#ff6b35" fill-opacity="0.13" stroke="#ff6b35" stroke-opacity="0.5" stroke-width="1"/>
    
    <g transform="translate(128.96880000000002, 220.3) scale(0.4749999999999999)"><path d="M12 2c2.5 3.4 6.2 6 6.2 10.6a6.2 6.2 0 0 1-12.4 0c0-1.6.6-3 1.6-4.1-.1 1.5.8 2.6 2 2.8-.1-2.8.9-5.4 2.6-7.5.2 1.5.9 2.4 2.1 2.8-.2-2-.8-4-2.1-5.6Z" fill="#ff6b35"/></g>
    <text class="gl-badge-label" x="145.6688" y="229.6" fill="#c9d1d9">Inferno</text>
    
  </g><g>
    <title>Gatekeeper — 100+ pull-request reviews this year</title>
    <rect x="202.2988" y="217" width="89.9" height="18" rx="9" fill="#5cc3ff" fill-opacity="0.13" stroke="#5cc3ff" stroke-opacity="0.5" stroke-width="1"/>
    
    <g transform="translate(206.5988, 220.3) scale(0.4749999999999999)">
    <circle cx="8" cy="7.5" r="3.2" fill="none" stroke="#5cc3ff" stroke-width="1.7"/>
    <path d="M2.5 20a5.5 5.5 0 0 1 11 0" fill="none" stroke="#5cc3ff" stroke-width="1.7" stroke-linecap="round"/>
    <circle cx="16.5" cy="8.5" r="2.6" fill="none" stroke="#5cc3ff" stroke-width="1.6"/>
    <path d="M14.8 20a4.6 4.6 0 0 1 7.7-3.4" fill="none" stroke="#5cc3ff" stroke-width="1.6" stroke-linecap="round"/></g>
    <text class="gl-badge-label" x="223.2988" y="229.6" fill="#c9d1d9">Gatekeeper</text>
    
  </g><g>
    <title>Luminary — 1,000+ followers</title>
    <rect x="298.1988" y="217" width="77.72" height="18" rx="9" fill="#67e8f9" fill-opacity="0.13" stroke="#67e8f9" stroke-opacity="0.5" stroke-width="1"/>
    
    <g transform="translate(302.4988, 220.3) scale(0.4749999999999999)">
    <circle cx="12" cy="12" r="2.6" fill="#67e8f9"/>
    <path d="M6.6 6.6a7.6 7.6 0 0 0 0 10.8M17.4 6.6a7.6 7.6 0 0 1 0 10.8" fill="none" stroke="#67e8f9" stroke-width="1.7" stroke-linejoin="round" stroke-linecap="round"/>
    <path d="M3.4 3.4a12.1 12.1 0 0 0 0 17.2M20.6 3.4a12.1 12.1 0 0 1 0 17.2" fill="none" stroke="#67e8f9" stroke-width="1.5" stroke-linejoin="round" stroke-linecap="round" opacity="0.55"/></g>
    <text class="gl-badge-label" x="319.1988" y="229.6" fill="#c9d1d9">Luminary</text>
    
  </g><g>
    <title>Veteran — 5+ years on GitHub</title>
    <rect x="381.91880000000003" y="217" width="71.63" height="18" rx="9" fill="#8098b0" fill-opacity="0.13" stroke="#8098b0" stroke-opacity="0.5" stroke-width="1"/>
    
    <g transform="translate(386.21880000000004, 220.3) scale(0.4749999999999999)">
    <path d="M6 3h12M6 21h12" fill="none" stroke="#8098b0" stroke-width="1.8" stroke-linejoin="round" stroke-linecap="round"/>
    <path d="M7.6 3c0 4 4.4 5.6 4.4 9s-4.4 5-4.4 9M16.4 3c0 4-4.4 5.6-4.4 9s4.4 5 4.4 9" fill="none" stroke="#8098b0" stroke-width="1.7" stroke-linejoin="round" stroke-linecap="round"/></g>
    <text class="gl-badge-label" x="402.91880000000003" y="229.6" fill="#c9d1d9">Veteran</text>
    
  </g></g>
</svg>