<svg xmlns="http://www.w3.org/2000/svg" width="500" height="253" viewBox="0 0 500 253" role="img" aria-labelledby="card-title-a11y card-desc-a11y">
<title id="card-title-a11y">Ada Vega — Level 28 TypeScript Justicar (Epic)</title>
<desc id="card-desc-a11y">Epic TypeScript Justicar, subclass Rust Guardian. Level 28, 81249 XP (50% to next). Fame +12920, Combo x66. Badges: Supernova, Lone Wolf, Prolific, Ablaze, Architect, Fleetmaster, Exorcist, Rising, Beacon.</desc>
<style>
text { font-family: 'Segoe UI', Ubuntu, 'Helvetica Neue', sans-serif; }
.title { font-size: 18px; font-weight: 600; fill: #a371f7; }
.title-icon { fill: #a371f7; }
.icon { fill: #a371f7; }


.gl-name { font-size: 21px; font-weight: 700; fill: #a371f7; }
.gl-lvl { font-size: 15px; font-weight: 800; letter-spacing: 1.5px; fill: #a371f7; }
.gl-class { font-size: 17px; font-weight: 700; fill: #3178c6; }
.gl-sub { font-size: 13px; font-weight: 600; fill: #cdc8e3; opacity: 0.75; }
.gl-meta { font-size: 11px; fill: #cdc8e3; opacity: 0.7; }
.gl-pct { font-size: 16px; font-weight: 800; fill: #a371f7; }
.gl-chip-label { font-size: 12px; font-weight: 600; fill: #cdc8e3; }
.gl-chip-value { font-size: 12px; font-weight: 800; fill: #3178c6; }
.gl-hint { font-size: 10px; fill: #cdc8e3; opacity: 0.62; }
.gl-badge-label { font-size: 10.5px; font-weight: 600; }
.gl-rarity { font-size: 9px; font-weight: 700; letter-spacing: 2.5px; fill: #a371f7; }

</style>
<defs><linearGradient id="card-bg" x1="0" y1="0" x2="1" y2="1" gradientTransform="rotate(90, 0.5, 0.5)"><stop offset="0.0%" stop-color="#120f1d"/><stop offset="100.0%" stop-color="#221a3a"/></linearGradient><filter id="card-glow" x="-50%" y="-50%" width="200%" height="200%">
    <feGaussianBlur in="SourceGraphic" stdDeviation="3" result="blur"/>
    <feFlood flood-color="#a371f7" flood-opacity="0.55" result="tint"/>
    <feComposite in="tint" in2="blur" operator="in" result="softGlow"/>
    <feMerge><feMergeNode in="softGlow"/><feMergeNode in="SourceGraphic"/></feMerge>
  </filter><filter id="gl-glow" x="-60%" y="-60%" width="220%" height="220%">
    <feGaussianBlur in="SourceGraphic" stdDeviation="2.4" result="b"/>
    <feFlood flood-color="#3178c6" flood-opacity="0.55" result="t"/>
    <feComposite in="t" in2="b" operator="in" result="g"/>
    <feMerge><feMergeNode in="g"/><feMergeNode in="SourceGraphic"/></feMerge>
  </filter>
  <filter id="gl-rarity" x="-20%" y="-20%" width="140%" height="140%">
    <feGaussianBlur stdDeviation="2.4"/>
  </filter></defs>
<rect x="0.5" y="0.5" width="499" height="252" rx="14" fill="url(#card-bg)" stroke="#a371f7" stroke-width="1.4" stroke-opacity="0.6"/>
<rect x="3.5" y="3.5" width="493" height="246" rx="11" fill="none" stroke="#3b3352" stroke-opacity="0.4"/>

<rect x="2" y="2" width="496" height="249" rx="13" fill="none" stroke="#a371f7" stroke-width="3.5" stroke-opacity="0.4" filter="url(#gl-rarity)"/>
<g class="fade">
    <g class="">
      <g class="flourish"><g transform="translate(84,0)"><g transform="translate(0,92)" fill="#3178c6">
    <path d="M20 0 Q 40 -12 50 2 Q 36 -2 28 4 Z" opacity="0.82"/>
    <path d="M21 6 Q 38 0 48 16 Q 34 9 28 11 Z" opacity="0.64"/>
    <path d="M22 12 Q 34 12 44 24 Q 32 17 27 17 Z" opacity="0.48"/>
  </g></g><g transform="translate(84,0) scale(-1,1)"><g transform="translate(0,92)" fill="#3178c6">
    <path d="M20 0 Q 40 -12 50 2 Q 36 -2 28 4 Z" opacity="0.82"/>
    <path d="M21 6 Q 38 0 48 16 Q 34 9 28 11 Z" opacity="0.64"/>
    <path d="M22 12 Q 34 12 44 24 Q 32 17 27 17 Z" opacity="0.48"/>
  </g></g></g>
      <circle cx="84" cy="92" r="44" fill="#3178c6" fill-opacity="0.08" stroke="#3178c6" stroke-opacity="0.35" stroke-width="1.5"/>
      <g class="">
    <circle cx="84" cy="92" r="38" fill="none" stroke="#3178c6" stroke-opacity="0.6" stroke-width="1.4" stroke-dasharray="1.5 7" stroke-linecap="round"/>
    <circle cx="84" cy="92" r="34" fill="none" stroke="#3178c6" stroke-opacity="0.25" stroke-width="0.8"/>
  </g>
      
      <g class="" filter="url(#gl-glow)"><svg class="" x="51" y="59" width="66" height="66" viewBox="0 0 48 48" aria-hidden="true"><defs><radialGradient id="tsHalo" cx="0.5" cy="0.5" r="0.5"><stop offset="0" stop-color="#3178c6" stop-opacity="0.42"/><stop offset="1" stop-color="#3178c6" stop-opacity="0"/></radialGradient><linearGradient id="tsMetal" x1="0" y1="0" x2="1" y2="1"><stop offset="0" stop-color="#f5e5bb"/><stop offset="0.5" stop-color="#e6bf55"/><stop offset="1" stop-color="#73602b"/></linearGradient></defs>
    <circle cx="24" cy="24" r="21" fill="url(#tsHalo)"/>
    <path d="M24 11 l2 2 l-2 2 l-2 -2 Z" fill="#fff3c4"/>
    <rect x="23.1" y="14" width="1.8" height="21" rx="0.6" fill="url(#tsMetal)"/>
    <rect x="18" y="33" width="12" height="2.4" rx="0.8" fill="url(#tsMetal)"/>
    <path d="M9 17 H39" stroke="url(#tsMetal)" stroke-width="2.2" stroke-linecap="round"/>
    <g stroke="#e6bf55" stroke-width="0.8" stroke-opacity="0.8"><path d="M11 17 L7 24 M11 17 L15 24 M37 17 L33 24 M37 17 L41 24"/></g>
    <g transform="translate(5 24)"><path d="M0 0 Q6 8 12 0 Z" fill="url(#tsMetal)" stroke="#b8860b" stroke-width="0.5"/></g>
    <g transform="translate(31 24)"><path d="M0 0 Q6 8 12 0 Z" fill="url(#tsMetal)" stroke="#b8860b" stroke-width="0.5"/></g></svg></g>
      
    </g>
    <g><g class="" transform="translate(45.5, 145.5) scale(0.5416666666666666)" fill="#a371f7" stroke="#a371f7" stroke-width="2.4" stroke-linejoin="round" stroke-linecap="round" opacity="1">
    <path d="M12 3 L14.5 8.6 L20.6 9.3 L16 13.5 L17.4 19.6 L12 16.5 L6.6 19.6 L8 13.5 L3.4 9.3 L9.5 8.6 Z"/>
  </g><g class="" transform="translate(61.5, 145.5) scale(0.5416666666666666)" fill="#a371f7" stroke="#a371f7" stroke-width="2.4" stroke-linejoin="round" stroke-linecap="round" opacity="1">
    <path d="M12 3 L14.5 8.6 L20.6 9.3 L16 13.5 L17.4 19.6 L12 16.5 L6.6 19.6 L8 13.5 L3.4 9.3 L9.5 8.6 Z"/>
  </g><g class="" transform="translate(77.5, 145.5) scale(0.5416666666666666)" fill="#a371f7" stroke="#a371f7" stroke-width="2.4" stroke-linejoin="round" stroke-linecap="round" opacity="1">
    <path d="M12 3 L14.5 8.6 L20.6 9.3 L16 13.5 L17.4 19.6 L12 16.5 L6.6 19.6 L8 13.5 L3.4 9.3 L9.5 8.6 Z"/>
  </g><g class="" transform="translate(93.5, 145.5) scale(0.5416666666666666)" fill="#cdc8e3" stroke="#cdc8e3" stroke-width="2.4" stroke-linejoin="round" stroke-linecap="round" opacity="0.22">
    <path d="M12 3 L14.5 8.6 L20.6 9.3 L16 13.5 L17.4 19.6 L12 16.5 L6.6 19.6 L8 13.5 L3.4 9.3 L9.5 8.6 Z"/>
  </g><g class="" transform="translate(109.5, 145.5) scale(0.5416666666666666)" fill="#cdc8e3" stroke="#cdc8e3" stroke-width="2.4" stroke-linejoin="round" stroke-linecap="round" opacity="0.22">
    <path d="M12 3 L14.5 8.6 L20.6 9.3 L16 13.5 L17.4 19.6 L12 16.5 L6.6 19.6 L8 13.5 L3.4 9.3 L9.5 8.6 Z"/>
  </g></g>
    <text class="gl-rarity" x="84" y="172" text-anchor="middle">EPIC</text>
  </g>
<g class="fade" style="animation-delay:.15s">
    <text class="gl-name" x="150" y="41">Ada Vega</text>
    <text class="gl-lvl glow-pulse" x="474" y="39" text-anchor="end" filter="url(#gl-glow)">LV 28</text>
    <line x1="150" y1="51" x2="474" y2="51" stroke="#3178c6" stroke-opacity="0.22" stroke-width="1"/>

    <circle cx="154" cy="70" r="4" fill="#3178c6"/>
    <text class="gl-class" x="166" y="75">TypeScript Justicar</text>
    <text class="gl-sub" x="150" y="94">Subclass · Rust Guardian</text>

    <text class="gl-meta" x="150" y="118">81.2k / 84.1k XP</text>
    <text class="gl-pct " x="474" y="119" text-anchor="end">50%</text>
    <rect x="150" y="126" width="324" height="10" rx="5" fill="#cdc8e3" fill-opacity="0.14"/>
    <rect class="xp-fill " x="150" y="126" width="161.94315789473686" height="10" rx="5" fill="#a371f7" filter="url(#gl-glow)"/>
    <text class="gl-hint" x="150" y="151">2.9k XP to Lv 29</text>

    <g transform="translate(150, 176)">
      <svg class="icon" x="0" y="-11" width="14" height="14" viewBox="0 0 16 16" aria-hidden="true"><path fill-rule="evenodd" d="M8 .25a.75.75 0 0 1 .673.418l1.882 3.815 4.21.612a.75.75 0 0 1 .416 1.279l-3.046 2.97.719 4.192a.75.75 0 0 1-1.088.791L8 12.347l-3.766 1.98a.75.75 0 0 1-1.088-.79l.72-4.194L.818 6.374a.75.75 0 0 1 .416-1.28l4.21-.611L7.327.668A.75.75 0 0 1 8 .25zm0 2.445L6.615 5.5a.75.75 0 0 1-.564.41l-3.097.45 2.24 2.184a.75.75 0 0 1 .216.664l-.528 3.084 2.769-1.456a.75.75 0 0 1 .698 0l2.77 1.456-.53-3.084a.75.75 0 0 1 .216-.664l2.24-2.183-3.096-.45a.75.75 0 0 1-.564-.41L8 2.694v.001z"/></svg>
      <text class="gl-chip-label" x="22" y="0">Fame</text>
      <text class="gl-chip-value" x="64" y="0">+12.9k</text>
    </g>
    <g transform="translate(284, 176)">
      <svg class="icon" x="0" y="-11" width="14" height="14" viewBox="0 0 16 16" aria-hidden="true"><path fill-rule="evenodd" d="M8 1c1.7 2.3 4.2 4 4.2 7.1a4.2 4.2 0 0 1-8.4 0c0-1.1.4-2 1.1-2.8-.1 1 .5 1.8 1.4 1.9-.1-1.9.6-3.7 1.8-5.1.1 1 .6 1.6 1.4 1.9.1-1.4-.5-2.7-1.5-3.9z"/></svg>
      <text class="gl-chip-label" x="22" y="0">Combo</text>
      <text class="gl-chip-value" x="80" y="0">x66</text>
    </g>
  </g>
<g class="fade" style="animation-delay:.2s"><line x1="26" y1="186" x2="474" y2="186" stroke="#cdc8e3" stroke-opacity="0.1" stroke-width="1"/><g>
    <title>Supernova (rare) — 10,000+ stars across their repos</title>
    <rect x="26" y="194" width="99.0024" height="18" rx="9" fill="#ffe066" fill-opacity="0.26" stroke="#ffe066" stroke-opacity="1" stroke-width="1.6"/>
    <rect x="27" y="195" width="97.0024" height="8" rx="8" fill="#ffffff" fill-opacity="0.13"/>
    <g transform="translate(30.3, 197.3) scale(0.4749999999999999)"><path d="M12 2.6 14.9 8.5 21.4 9.45 16.7 14.05 17.8 20.55 12 17.5 6.2 20.55 7.3 14.05 2.6 9.45 9.1 8.5Z" fill="#ffe066"/></g>
    <text class="gl-badge-label" x="47" y="206.6" fill="#cdc8e3" font-weight="800">Supernova</text>
    <g class="" transform="translate(108.0024, 198.5) scale(0.375)" fill="#ffe066" stroke="#ffe066" stroke-width="2.4" stroke-linejoin="round" stroke-linecap="round" opacity="1">
    <path d="M12 3 L14.5 8.6 L20.6 9.3 L16 13.5 L17.4 19.6 L12 16.5 L6.6 19.6 L8 13.5 L3.4 9.3 L9.5 8.6 Z"/>
  </g>
  </g><g>
    <title>Lone Wolf (rare) — Builds alone and ships anyway — 10+ repos, 300+ commits, almost no reviews</title>
    <rect x="131.0024" y="194" width="99.0024" height="18" rx="9" fill="#94a3b8" fill-opacity="0.26" stroke="#94a3b8" stroke-opacity="1" stroke-width="1.6"/>
    <rect x="132.0024" y="195" width="97.0024" height="8" rx="8" fill="#ffffff" fill-opacity="0.13"/>
    <g transform="translate(135.3024, 197.3) scale(0.4749999999999999)">
    <path d="M5 5.4 8.8 8.6h6.4L19 5.4v8.3c0 3.9-3.1 6.8-7 6.8s-7-2.9-7-6.8Z" fill="none" stroke="#94a3b8" stroke-width="1.7" stroke-linejoin="round"/>
    <circle cx="9.7" cy="12.8" r="1" fill="#94a3b8"/>
    <circle cx="14.3" cy="12.8" r="1" fill="#94a3b8"/>
    <path d="M12 15.6v2" fill="none" stroke="#94a3b8" stroke-width="1.5" stroke-linejoin="round" stroke-linecap="round"/></g>
    <text class="gl-badge-label" x="152.0024" y="206.6" fill="#cdc8e3" font-weight="800">Lone Wolf</text>
    <g class="" transform="translate(213.0048, 198.5) scale(0.375)" fill="#94a3b8" stroke="#94a3b8" stroke-width="2.4" stroke-linejoin="round" stroke-linecap="round" opacity="1">
    <path d="M12 3 L14.5 8.6 L20.6 9.3 L16 13.5 L17.4 19.6 L12 16.5 L6.6 19.6 L8 13.5 L3.4 9.3 L9.5 8.6 Z"/>
  </g>
  </g><g>
    <title>Prolific (rare) — 2,000+ commits in the last 12 months alone</title>
    <rect x="236.0048" y="194" width="92.6688" height="18" rx="9" fill="#fb923c" fill-opacity="0.26" stroke="#fb923c" stroke-opacity="1" stroke-width="1.6"/>
    <rect x="237.0048" y="195" width="90.6688" height="8" rx="8" fill="#ffffff" fill-opacity="0.13"/>
    <g transform="translate(240.3048, 197.3) scale(0.4749999999999999)"><path d="M13.6 2 4.4 13.8h6L10 22l9.6-11.9h-6.5Z" fill="#fb923c"/></g>
    <text class="gl-badge-label" x="257.0048" y="206.6" fill="#cdc8e3" font-weight="800">Prolific</text>
    <g class="" transform="translate(311.67359999999996, 198.5) scale(0.375)" fill="#fb923c" stroke="#fb923c" stroke-width="2.4" stroke-linejoin="round" stroke-linecap="round" opacity="1">
    <path d="M12 3 L14.5 8.6 L20.6 9.3 L16 13.5 L17.4 19.6 L12 16.5 L6.6 19.6 L8 13.5 L3.4 9.3 L9.5 8.6 Z"/>
  </g>
  </g><g>
    <title>Ablaze — 30-day contribution streak</title>
    <rect x="334.67359999999996" y="194" width="65.53999999999999" height="18" rx="9" fill="#ff9436" fill-opacity="0.13" stroke="#ff9436" stroke-opacity="0.5" stroke-width="1"/>
    
    <g transform="translate(338.9736, 197.3) scale(0.4749999999999999)"><path d="M12 2c2.5 3.4 6.2 6 6.2 10.6a6.2 6.2 0 0 1-12.4 0c0-1.6.6-3 1.6-4.1-.1 1.5.8 2.6 2 2.8-.1-2.8.9-5.4 2.6-7.5.2 1.5.9 2.4 2.1 2.8-.2-2-.8-4-2.1-5.6Z" fill="#ff9436"/></g>
    <text class="gl-badge-label" x="355.67359999999996" y="206.6" fill="#cdc8e3">Ablaze</text>
    
  </g><g>
    <title>Architect — 20+ repositories created</title>
    <rect x="26" y="217" width="83.81" height="18" rx="9" fill="#34d399" fill-opacity="0.13" stroke="#34d399" stroke-opacity="0.5" stroke-width="1"/>
    
    <g transform="translate(30.3, 220.3) scale(0.4749999999999999)">
    <rect x="4" y="4" width="16" height="16" rx="2.4" fill="none" stroke="#34d399" stroke-width="1.7"/>
    <path d="M8 4v16 M4 9.5h4" fill="none" stroke="#34d399" stroke-width="1.5" opacity="0.85"/></g>
    <text class="gl-badge-label" x="47" y="229.6" fill="#cdc8e3">Architect</text>
    
  </g><g>
    <title>Fleetmaster — 150+ merged pull requests</title>
    <rect x="115.81" y="217" width="95.99" height="18" rx="9" fill="#ec4899" fill-opacity="0.13" stroke="#ec4899" stroke-opacity="0.5" stroke-width="1"/>
    
    <g transform="translate(120.11, 220.3) scale(0.4749999999999999)">
    <circle cx="12" cy="4.4" r="2.2" fill="none" stroke="#ec4899" stroke-width="1.7"/>
    <path d="M12 6.6V21M7.6 10h8.8" fill="none" stroke="#ec4899" stroke-width="1.7" stroke-linejoin="round" stroke-linecap="round"/>
    <path d="M4 13.6a8 8 0 0 0 16 0" fill="none" stroke="#ec4899" stroke-width="1.7" stroke-linejoin="round" stroke-linecap="round"/></g>
    <text class="gl-badge-label" x="136.81" y="229.6" fill="#cdc8e3">Fleetmaster</text>
    
  </g><g>
    <title>Exorcist — 150+ issues closed</title>
    <rect x="217.8" y="217" width="77.72" height="18" rx="9" fill="#bef264" fill-opacity="0.13" stroke="#bef264" stroke-opacity="0.5" stroke-width="1"/>
    
    <g transform="translate(222.10000000000002, 220.3) scale(0.4749999999999999)">
    <rect x="7.4" y="7.6" width="9.2" height="12" rx="4.6" fill="none" stroke="#bef264" stroke-width="1.7"/>
    <path d="M9.6 7.6a2.4 2.4 0 0 1 4.8 0" fill="none" stroke="#bef264" stroke-width="1.6" stroke-linejoin="round" stroke-linecap="round"/>
    <path d="M7.4 11.6H4M16.6 11.6H20M7.4 16H4.6M16.6 16H19.4M9.8 4.6 8.4 2.6M14.2 4.6 15.6 2.6" fill="none" stroke="#bef264" stroke-width="1.5" stroke-linejoin="round" stroke-linecap="round"/></g>
    <text class="gl-badge-label" x="238.8" y="229.6" fill="#cdc8e3">Exorcist</text>
    
  </g><g>
    <title>Rising — Under a year old and already shipping — 30+ commits</title>
    <rect x="301.52" y="217" width="65.53999999999999" height="18" rx="9" fill="#ffb454" fill-opacity="0.13" stroke="#ffb454" stroke-opacity="0.5" stroke-width="1"/>
    
    <g transform="translate(305.82, 220.3) scale(0.4749999999999999)">
    <path d="M3 17 L9 9 L13 12 L20 4" fill="none" stroke="#ffb454" stroke-width="2.1" stroke-linejoin="round" stroke-linecap="round"/>
    <path d="M14 4 H20 V10" fill="none" stroke="#ffb454" stroke-width="2.1" stroke-linejoin="round" stroke-linecap="round"/></g>
    <text class="gl-badge-label" x="322.52" y="229.6" fill="#cdc8e3">Rising</text>
    
  </g><g>
    <title>Beacon — 100+ followers</title>
    <rect x="373.05999999999995" y="217" width="65.53999999999999" height="18" rx="9" fill="#22d3ee" fill-opacity="0.13" stroke="#22d3ee" stroke-opacity="0.5" stroke-width="1"/>
    
    <g transform="translate(377.35999999999996, 220.3) scale(0.4749999999999999)">
    <circle cx="12" cy="12" r="2.6" fill="#22d3ee"/>
    <path d="M6.6 6.6a7.6 7.6 0 0 0 0 10.8M17.4 6.6a7.6 7.6 0 0 1 0 10.8" fill="none" stroke="#22d3ee" stroke-width="1.7" stroke-linejoin="round" stroke-linecap="round"/>
    <path d="M3.4 3.4a12.1 12.1 0 0 0 0 17.2M20.6 3.4a12.1 12.1 0 0 1 0 17.2" fill="none" stroke="#22d3ee" stroke-width="1.5" stroke-linejoin="round" stroke-linecap="round" opacity="0.55"/></g>
    <text class="gl-badge-label" x="394.05999999999995" y="229.6" fill="#cdc8e3">Beacon</text>
    
  </g></g>
</svg>