<svg xmlns="http://www.w3.org/2000/svg" viewBox="0 0 160 160" width="160" height="160" role="img" aria-label="Elixir crest">
  <circle cx="80" cy="80" r="70" fill="#a06fb5" fill-opacity="0.08"/>
  <circle cx="80" cy="80" r="70" fill="none" stroke="#a06fb5" stroke-opacity="0.35" stroke-width="2"/>
  <circle cx="80" cy="80" r="61" fill="none" stroke="#a06fb5" stroke-opacity="0.5" stroke-width="1.3" stroke-dasharray="2 10" stroke-linecap="round"/>
  <svg class="" x="30" y="30" width="100" height="100" viewBox="0 0 48 48" aria-hidden="true"><defs><radialGradient id="elHalo" cx="0.5" cy="0.5" r="0.5"><stop offset="0" stop-color="#a06fb5" stop-opacity="0.42"/><stop offset="1" stop-color="#a06fb5" stop-opacity="0"/></radialGradient>
      <linearGradient id="elGlass" x1="0" y1="0" x2="0" y2="1"><stop offset="0" stop-color="#d0b7da" stop-opacity="0.35"/><stop offset="1" stop-color="#704e7f" stop-opacity="0.5"/></linearGradient>
      <radialGradient id="elBrew" cx="0.5" cy="0.6" r="0.6"><stop offset="0" stop-color="#d9c5e1"/><stop offset="1" stop-color="#60436d"/></radialGradient>
    </defs>
    <circle cx="24" cy="24" r="21" fill="url(#elHalo)"/>
    <path d="M20 6 H28 M21 7 V17 L11 35 A3 3 0 0 0 13.6 39.5 H34.4 A3 3 0 0 0 37 35 L27 17 V7" fill="url(#elGlass)" stroke="#e6bf55" stroke-width="1.3" stroke-linejoin="round"/>
    <path d="M15.5 30 A9 7 0 0 0 32.5 30 Z" fill="url(#elBrew)"/>
    <circle cx="22" cy="26" r="1.3" fill="#e3d4e9" opacity="0.8"/><circle cx="27" cy="23" r="1" fill="#e3d4e9" opacity="0.7"/>
    <path d="M30 9 l0.96 2.04 l2.04 0.96 l-2.04 0.96 l-0.96 2.04 l-0.96 -2.04 l-2.04 -0.96 l2.04 -0.96 Z" fill="#fff3c4"/></svg>
</svg>