<svg xmlns="http://www.w3.org/2000/svg" viewBox="0 0 160 160" width="160" height="160" role="img" aria-label="JavaScript crest">
  <circle cx="80" cy="80" r="70" fill="#f1e05a" fill-opacity="0.08"/>
  <circle cx="80" cy="80" r="70" fill="none" stroke="#f1e05a" stroke-opacity="0.35" stroke-width="2"/>
  <circle cx="80" cy="80" r="61" fill="none" stroke="#f1e05a" stroke-opacity="0.5" stroke-width="1.3" stroke-dasharray="2 10" stroke-linecap="round"/>
  <svg class="" x="30" y="30" width="100" height="100" viewBox="0 0 48 48" aria-hidden="true"><defs><radialGradient id="jsHalo" cx="0.5" cy="0.5" r="0.5"><stop offset="0" stop-color="#f1e05a" stop-opacity="0.42"/><stop offset="1" stop-color="#f1e05a" stop-opacity="0"/></radialGradient><linearGradient id="jsBlade" x1="0" y1="0" x2="0" y2="1"><stop offset="0" stop-color="#fbf5ca"/><stop offset="0.5" stop-color="#f5e98a"/><stop offset="1" stop-color="#87804c"/></linearGradient></defs>
    <circle cx="24" cy="24" r="21" fill="url(#jsHalo)"/>
    <g stroke="#e6bf55" stroke-width="1" stroke-opacity="0.5" stroke-linecap="round"><path d="M24 4 V9 M24 39 V44 M6 24 H11 M37 24 H42 M11 11 L14 14 M37 37 L34 34 M37 11 L34 14 M11 37 L14 34"/></g>
    <path d="M24 8 L27.5 27 L24 31 L20.5 27 Z" fill="url(#jsBlade)" stroke="#b8860b" stroke-width="0.6" stroke-linejoin="round"/>
    <path d="M24 10 V29" stroke="#918636" stroke-width="0.6" stroke-opacity="0.5"/>
    <rect x="16" y="30" width="16" height="2.4" rx="1" fill="url(#jsBlade)" stroke="#b8860b" stroke-width="0.4"/>
    <rect x="22.6" y="32" width="2.8" height="8" rx="0.8" fill="#b8860b"/>
    <circle cx="24" cy="41.5" r="2.1" fill="url(#jsBlade)" stroke="#b8860b" stroke-width="0.5"/></svg>
</svg>