<svg xmlns="http://www.w3.org/2000/svg" viewBox="0 0 160 160" width="160" height="160" role="img" aria-label="Java crest">
  <circle cx="80" cy="80" r="70" fill="#e76f00" fill-opacity="0.08"/>
  <circle cx="80" cy="80" r="70" fill="none" stroke="#e76f00" stroke-opacity="0.35" stroke-width="2"/>
  <circle cx="80" cy="80" r="61" fill="none" stroke="#e76f00" stroke-opacity="0.5" stroke-width="1.3" stroke-dasharray="2 10" stroke-linecap="round"/>
  <svg class="" x="30" y="30" width="100" height="100" viewBox="0 0 48 48" aria-hidden="true"><defs><radialGradient id="jvHalo" cx="0.5" cy="0.5" r="0.5"><stop offset="0" stop-color="#e76f00" stop-opacity="0.42"/><stop offset="1" stop-color="#e76f00" stop-opacity="0"/></radialGradient><linearGradient id="jvGold" x1="0" y1="0" x2="1" y2="1"><stop offset="0" stop-color="#f9e0b0"/><stop offset="0.5" stop-color="#f0b23a"/><stop offset="1" stop-color="#78591d"/></linearGradient>
      <radialGradient id="jvBrew" cx="0.5" cy="0.4" r="0.6"><stop offset="0" stop-color="#f3b780"/><stop offset="1" stop-color="#a24e00"/></radialGradient>
    </defs>
    <circle cx="24" cy="24" r="21" fill="url(#jvHalo)"/>
    <g stroke="#e6bf55" stroke-width="1.4" stroke-linecap="round" fill="none" opacity="0.8"><path d="M20 12 Q17 8 20 4 M28 12 Q31 8 28 4 M24 11 Q21.5 7.5 24 3.5"/></g>
    <path d="M13 16 H35 L32 27 Q24 33 16 27 Z" fill="url(#jvGold)" stroke="#b8860b" stroke-width="0.8" stroke-linejoin="round"/>
    <path d="M15 18 H33 L31 25 Q24 29 17 25 Z" fill="url(#jvBrew)"/>
    <path d="M35 18 Q41 20 38 26 Q36.5 27 35.5 25.5 Q38 24 35 21 Z" fill="url(#jvGold)" stroke="#b8860b" stroke-width="0.6"/>
    <rect x="22.8" y="32" width="2.4" height="6" fill="url(#jvGold)"/>
    <path d="M17 40 H31 L29 43 H19 Z" fill="url(#jvGold)" stroke="#b8860b" stroke-width="0.6" stroke-linejoin="round"/></svg>
</svg>