<svg xmlns="http://www.w3.org/2000/svg" viewBox="0 0 160 160" width="160" height="160" role="img" aria-label="Lua crest">
  <circle cx="80" cy="80" r="70" fill="#6b7bd6" fill-opacity="0.08"/>
  <circle cx="80" cy="80" r="70" fill="none" stroke="#6b7bd6" stroke-opacity="0.35" stroke-width="2"/>
  <circle cx="80" cy="80" r="61" fill="none" stroke="#6b7bd6" stroke-opacity="0.5" stroke-width="1.3" stroke-dasharray="2 10" stroke-linecap="round"/>
  <svg class="" x="30" y="30" width="100" height="100" viewBox="0 0 48 48" aria-hidden="true"><defs><radialGradient id="luHalo" cx="0.5" cy="0.5" r="0.5"><stop offset="0" stop-color="#6b7bd6" stop-opacity="0.42"/><stop offset="1" stop-color="#6b7bd6" stop-opacity="0"/></radialGradient>
      <linearGradient id="luMoon" x1="0" y1="0" x2="0" y2="1"><stop offset="0" stop-color="#c4caef"/><stop offset="0.5" stop-color="#6b7bd6"/><stop offset="1" stop-color="#404a80"/></linearGradient>
    </defs>
    <circle cx="24" cy="24" r="21" fill="url(#luHalo)"/>
    <path d="M27 6 A18 18 0 1 0 27 42 A13 16 0 1 1 27 6 Z" fill="url(#luMoon)" stroke="#e6bf55" stroke-width="1" stroke-linejoin="round"/>
    <circle cx="14" cy="14" r="1.3" fill="#fff3c4"/><circle cx="10" cy="24" r="1" fill="#fff3c4" opacity="0.8"/><circle cx="16" cy="34" r="1.1" fill="#fff3c4" opacity="0.7"/>
    <path d="M33 10.6 l1.088 2.3120000000000003 l2.3120000000000003 1.088 l-2.3120000000000003 1.088 l-1.088 2.3120000000000003 l-1.088 -2.3120000000000003 l-2.3120000000000003 -1.088 l2.3120000000000003 -1.088 Z" fill="#e6bf55"/></svg>
</svg>