<svg xmlns="http://www.w3.org/2000/svg" viewBox="0 0 160 160" width="160" height="160" role="img" aria-label="PHP crest">
  <circle cx="80" cy="80" r="70" fill="#8a91d0" fill-opacity="0.08"/>
  <circle cx="80" cy="80" r="70" fill="none" stroke="#8a91d0" stroke-opacity="0.35" stroke-width="2"/>
  <circle cx="80" cy="80" r="61" fill="none" stroke="#8a91d0" stroke-opacity="0.5" stroke-width="1.3" stroke-dasharray="2 10" stroke-linecap="round"/>
  <svg class="" x="30" y="30" width="100" height="100" viewBox="0 0 48 48" aria-hidden="true"><defs><radialGradient id="phHalo" cx="0.5" cy="0.5" r="0.5"><stop offset="0" stop-color="#8a91d0" stop-opacity="0.42"/><stop offset="1" stop-color="#8a91d0" stop-opacity="0"/></radialGradient><linearGradient id="phMetal" x1="0" y1="0" x2="1" y2="1"><stop offset="0" stop-color="#d0d3ec"/><stop offset="0.5" stop-color="#8a91d0"/><stop offset="1" stop-color="#454968"/></linearGradient>
      <radialGradient id="phCore" cx="0.5" cy="0.5" r="0.5"><stop offset="0" stop-color="#dcdef1"/><stop offset="1" stop-color="#53577d"/></radialGradient>
    </defs>
    <circle cx="24" cy="24" r="21" fill="url(#phHalo)"/>
    <rect x="38.6" y="21.6" width="4.8" height="4.8" rx="1" transform="rotate(0 41.0 24.0)" fill="url(#phMetal)"/><rect x="33.6" y="33.6" width="4.8" height="4.8" rx="1" transform="rotate(45 36.0 36.0)" fill="url(#phMetal)"/><rect x="21.6" y="38.6" width="4.8" height="4.8" rx="1" transform="rotate(90 24.0 41.0)" fill="url(#phMetal)"/><rect x="9.6" y="33.6" width="4.8" height="4.8" rx="1" transform="rotate(135 12.0 36.0)" fill="url(#phMetal)"/><rect x="4.6" y="21.6" width="4.8" height="4.8" rx="1" transform="rotate(180 7.0 24.0)" fill="url(#phMetal)"/><rect x="9.6" y="9.6" width="4.8" height="4.8" rx="1" transform="rotate(225 12.0 12.0)" fill="url(#phMetal)"/><rect x="21.6" y="4.6" width="4.8" height="4.8" rx="1" transform="rotate(270 24.0 7.0)" fill="url(#phMetal)"/><rect x="33.6" y="9.6" width="4.8" height="4.8" rx="1" transform="rotate(315 36.0 12.0)" fill="url(#phMetal)"/>
    <circle cx="24" cy="24" r="14" fill="url(#phMetal)" stroke="#53577d" stroke-width="0.8"/>
    <circle cx="24" cy="24" r="9.5" fill="none" stroke="#b9bde3" stroke-width="0.7" stroke-opacity="0.6"/>
    <circle cx="24" cy="24" r="5" fill="url(#phCore)" stroke="#b8860b" stroke-width="0.8"/>
    <circle cx="24" cy="24" r="2" fill="#454968"/></svg>
</svg>