<svg xmlns="http://www.w3.org/2000/svg" viewBox="0 0 160 160" width="160" height="160" role="img" aria-label="Ruby crest">
  <circle cx="80" cy="80" r="70" fill="#cc342d" fill-opacity="0.08"/>
  <circle cx="80" cy="80" r="70" fill="none" stroke="#cc342d" stroke-opacity="0.35" stroke-width="2"/>
  <circle cx="80" cy="80" r="61" fill="none" stroke="#cc342d" stroke-opacity="0.5" stroke-width="1.3" stroke-dasharray="2 10" stroke-linecap="round"/>
  <svg class="" x="30" y="30" width="100" height="100" viewBox="0 0 48 48" aria-hidden="true"><defs><radialGradient id="rbHalo" cx="0.5" cy="0.5" r="0.5"><stop offset="0" stop-color="#cc342d" stop-opacity="0.42"/><stop offset="1" stop-color="#cc342d" stop-opacity="0"/></radialGradient><linearGradient id="rbGold" x1="0" y1="0" x2="1" y2="1"><stop offset="0" stop-color="#f6e2b7"/><stop offset="0.5" stop-color="#e8b74a"/><stop offset="1" stop-color="#745c25"/></linearGradient>
      <radialGradient id="rbGem" cx="0.5" cy="0.4" r="0.6"><stop offset="0" stop-color="#ebaeab"/><stop offset="0.6" stop-color="#cc342d"/><stop offset="1" stop-color="#661a17"/></radialGradient>
    </defs>
    <circle cx="24" cy="24" r="21" fill="url(#rbHalo)"/>
    <path d="M15 40 C6 32 8 14 16 9 M33 40 C42 32 40 14 32 9" fill="none" stroke="url(#rbGold)" stroke-width="2.6" stroke-linecap="round"/>
    <path d="M15 12 Q24 7 33 12" fill="none" stroke="url(#rbGold)" stroke-width="2.2" stroke-linecap="round"/>
    <g stroke="#fff3c4" stroke-width="0.9" stroke-opacity="0.8"><path d="M19 13 V38 M24 12 V40 M29 13 V38"/></g>
    <path d="M15 39 H33 L30 44 H18 Z" fill="url(#rbGold)" stroke="#b8860b" stroke-width="0.5" stroke-linejoin="round"/>
    <path d="M24 30 l4 5 l-4 5 l-4 -5 Z" fill="url(#rbGem)" stroke="#e6bf55" stroke-width="0.6"/></svg>
</svg>