<svg xmlns="http://www.w3.org/2000/svg" viewBox="0 0 160 160" width="160" height="160" role="img" aria-label="Rust crest">
  <circle cx="80" cy="80" r="70" fill="#dea584" fill-opacity="0.08"/>
  <circle cx="80" cy="80" r="70" fill="none" stroke="#dea584" stroke-opacity="0.35" stroke-width="2"/>
  <circle cx="80" cy="80" r="61" fill="none" stroke="#dea584" stroke-opacity="0.5" stroke-width="1.3" stroke-dasharray="2 10" stroke-linecap="round"/>
  <svg class="" x="30" y="30" width="100" height="100" viewBox="0 0 48 48" aria-hidden="true"><defs><radialGradient id="rsHalo" cx="0.5" cy="0.5" r="0.5"><stop offset="0" stop-color="#dea584" stop-opacity="0.42"/><stop offset="1" stop-color="#dea584" stop-opacity="0"/></radialGradient><linearGradient id="rsMetal" x1="0" y1="0" x2="1" y2="1"><stop offset="0" stop-color="#f2dbce"/><stop offset="0.5" stop-color="#dea584"/><stop offset="1" stop-color="#6f5342"/></linearGradient></defs>
    <circle cx="24" cy="24" r="21" fill="url(#rsHalo)"/>
    <path d="M24 7 L39 12 V25 Q39 37 24 43 Q9 37 9 25 V12 Z" fill="url(#rsMetal)" stroke="#b8860b" stroke-width="1.2" stroke-linejoin="round"/>
    <path d="M24 10 L36 14 V25 Q36 35 24 40 Q12 35 12 25 V14 Z" fill="none" stroke="#efd2c2" stroke-width="0.7" stroke-opacity="0.6"/>
    <circle cx="24" cy="24" r="6.5" fill="none" stroke="#b8860b" stroke-width="1.6"/>
    <g stroke="#b8860b" stroke-width="1.6" stroke-linecap="round"><path d="M24 20 V28 M24 24 L28.5 24"/></g>
    <g fill="#b8860b"><circle cx="13.5" cy="14" r="1"/><circle cx="34.5" cy="14" r="1"/><circle cx="24" cy="39.5" r="1"/></g></svg>
</svg>