<svg xmlns="http://www.w3.org/2000/svg" viewBox="0 0 160 160" width="160" height="160" role="img" aria-label="Scala crest">
  <circle cx="80" cy="80" r="70" fill="#dc3d54" fill-opacity="0.08"/>
  <circle cx="80" cy="80" r="70" fill="none" stroke="#dc3d54" stroke-opacity="0.35" stroke-width="2"/>
  <circle cx="80" cy="80" r="61" fill="none" stroke="#dc3d54" stroke-opacity="0.5" stroke-width="1.3" stroke-dasharray="2 10" stroke-linecap="round"/>
  <svg class="" x="30" y="30" width="100" height="100" viewBox="0 0 48 48" aria-hidden="true"><defs><radialGradient id="scHalo" cx="0.5" cy="0.5" r="0.5"><stop offset="0" stop-color="#dc3d54" stop-opacity="0.42"/><stop offset="1" stop-color="#dc3d54" stop-opacity="0"/></radialGradient><linearGradient id="scRock" x1="0" y1="0" x2="0" y2="1"><stop offset="0" stop-color="#e5a5ae"/><stop offset="0.5" stop-color="#c6374c"/><stop offset="1" stop-color="#6d1e2a"/></linearGradient><linearGradient id="scSnow" x1="0" y1="0" x2="0" y2="1"><stop offset="0" stop-color="#f8fafd"/><stop offset="0.5" stop-color="#f0f4fb"/><stop offset="1" stop-color="#84868a"/></linearGradient></defs>
    <circle cx="24" cy="24" r="21" fill="url(#scHalo)"/>
    <path d="M6 38 L18 14 L24 24 L30 10 L42 38 Z" fill="url(#scRock)" stroke="#b8860b" stroke-width="0.8" stroke-linejoin="round"/>
    <path d="M30 10 L34 18 L27 18 Z" fill="url(#scSnow)"/>
    <path d="M18 14 L21 20 L15 20 Z" fill="url(#scSnow)" opacity="0.9"/>
    <path d="M30 10 V4 M30 4 L36 7 L30 10.5 Z" fill="#e6bf55" stroke="#b8860b" stroke-width="0.5"/></svg>
</svg>