<svg xmlns="http://www.w3.org/2000/svg" viewBox="0 0 160 160" width="160" height="160" role="img" aria-label="Swift crest">
  <circle cx="80" cy="80" r="70" fill="#f05138" fill-opacity="0.08"/>
  <circle cx="80" cy="80" r="70" fill="none" stroke="#f05138" stroke-opacity="0.35" stroke-width="2"/>
  <circle cx="80" cy="80" r="61" fill="none" stroke="#f05138" stroke-opacity="0.5" stroke-width="1.3" stroke-dasharray="2 10" stroke-linecap="round"/>
  <svg class="" x="30" y="30" width="100" height="100" viewBox="0 0 48 48" aria-hidden="true"><defs><radialGradient id="swHalo" cx="0.5" cy="0.5" r="0.5"><stop offset="0" stop-color="#f05138" stop-opacity="0.42"/><stop offset="1" stop-color="#f05138" stop-opacity="0"/></radialGradient><linearGradient id="swBlade" x1="0" y1="0" x2="0" y2="1"><stop offset="0" stop-color="#f7f9fb"/><stop offset="0.5" stop-color="#eef2f7"/><stop offset="1" stop-color="#838588"/></linearGradient><linearGradient id="swGold" x1="0" y1="0" x2="1" y2="1"><stop offset="0" stop-color="#f6dab7"/><stop offset="0.5" stop-color="#e8a24a"/><stop offset="1" stop-color="#745125"/></linearGradient></defs>
    <circle cx="24" cy="24" r="21" fill="url(#swHalo)"/>
    <g stroke="#f05138" stroke-width="0.9" stroke-opacity="0.45" stroke-linecap="round"><path d="M24 3 V7 M14 6 L16 9 M34 6 L32 9"/></g>
    <path d="M24 5 L26 27 L24 31 L22 27 Z" fill="url(#swBlade)" stroke="#c0412d" stroke-width="0.5" stroke-linejoin="round"/>
    <path d="M24 7 V29" stroke="#b9c4d2" stroke-width="0.5" stroke-opacity="0.6"/>
    <path d="M15 30 Q24 26 33 30" fill="none" stroke="url(#swGold)" stroke-width="2" stroke-linecap="round"/>
    <path d="M18 30 Q24 38 30 30" fill="none" stroke="url(#swGold)" stroke-width="1.6" stroke-linecap="round" opacity="0.9"/>
    <rect x="22.8" y="30" width="2.4" height="9" rx="0.8" fill="url(#swGold)"/>
    <circle cx="24" cy="40.5" r="2.2" fill="url(#swGold)" stroke="#b8860b" stroke-width="0.5"/></svg>
</svg>